# xmcd CD database file
#
# Track frame offsets:
#	150
#	10267
#	29710
#	43782
#	68022
#	84532
#	100782
#	113977
#	126204
#	139877
#	153510
#	171615
#	185610
#	199684
#	214155
#	226577
#	241850
#	252467
#	264155
#	282872
#	296732
#	321907
#
# Disc length: 4519 seconds
#
# Revision: 0
# Processed by: cddbd v1.5.1PL0 Copyright (c) Steve Scherf et al.
# Submitted via: CDex 1.51
#
DISCID=4711a516
DTITLE=Various Artist - Country pohoda 4
DYEAR=2003
DGENRE=Country
TTITLE0=Waldemar Matuska/Patrim sem
TTITLE1=Michal Tucny/Co dest by nesmyl
TTITLE2=Petr Spaleny/Ja verim tvym snum
TTITLE3=Pavel Bobek/Dalnicni hlidka
TTITLE4=Nada Urbankova/Hlidej muj spanek, lasko
TTITLE5=KTO/Tohle misto mam tak rad
TTITLE6=Mirek Hoffmann/Vlak ma zelenou
TTITLE7=Rangers/Jizni dest
TTITLE8=Nove Schovanky/Vzpominani
TTITLE9=Ladislav Vodicka/Smutny snih
TTITLE10=Tucnaci/Povedou dal stopy mych kroku
TTITLE11=Waldemar Matuska/Doktorat z prusvihu
TTITLE12=Pavel Bobek/Zname se min nez chvili
TTITLE13=Karel Kahovec/Galveston
TTITLE14=Taxmeni/Cesta ma za tebou
TTITLE15=Petr Spaleny/Promin
TTITLE16=Jiri Suchy/Kver a flaska ginu
TTITLE17=Rangers/A dur
TTITLE18=Nada Urbankova/Davam ti dar
TTITLE19=Mirek Hoffmann/Bida s nouzi
TTITLE20=Ladislav Vodicka/Divka z hor
TTITLE21=KTO/Sedlo z bodlaku
EXTD=YEAR: 2003
EXTT0=
EXTT1=
EXTT2=
EXTT3=
EXTT4=
EXTT5=
EXTT6=
EXTT7=
EXTT8=
EXTT9=
EXTT10=
EXTT11=
EXTT12=
EXTT13=
EXTT14=
EXTT15=
EXTT16=
EXTT17=
EXTT18=
EXTT19=
EXTT20=
EXTT21=
PLAYORDER=
